<svg width="23" height="21" viewBox="0 0 23 21" fill="none" xmlns="http://www.w3.org/2000/svg">
<path d="M11.2402 0C17.4545 0 22.4969 4.00624 22.4971 8.8877C22.4971 13.7692 17.4711 17.7841 11.2568 17.7842C10.5774 17.7809 9.89865 17.7325 9.22559 17.6396L4.66504 20.7148C4.61092 20.7613 4.54279 20.7892 4.47168 20.7949C4.38607 20.7946 4.30347 20.7627 4.23926 20.7061C4.19528 20.6617 4.16454 20.6058 4.15039 20.5449C4.13629 20.484 4.13923 20.4206 4.15918 20.3613L5.21875 16.4033C2.08747 14.8216 0 12.0511 0 8.8877C0.00019466 4.01433 5.01806 0.000113564 11.2402 0ZM8.07031 6.23828C7.9301 6.23203 7.79007 6.26575 7.66797 6.33496C7.55359 6.40961 7.47082 6.52429 7.43555 6.65625L5.7334 11.2725C5.70128 11.3608 5.64551 11.4576 5.64551 11.5459C5.63177 11.6255 5.63177 11.7066 5.64551 11.7861C5.64125 11.8315 5.64125 11.8775 5.64551 11.9229C5.66901 12.0559 5.74002 12.1756 5.8457 12.2598C5.95431 12.3413 6.08786 12.3844 6.22363 12.3809C6.34873 12.3965 6.47534 12.3679 6.58203 12.3008C6.6888 12.2335 6.76965 12.1314 6.80957 12.0117L7.14648 11.0234H9.25781L9.5957 12.0117C9.63661 12.129 9.71567 12.229 9.82031 12.2959C9.92518 12.3629 10.05 12.3932 10.1738 12.3809C10.254 12.3827 10.3339 12.3681 10.4082 12.3379C10.4828 12.3075 10.5512 12.2618 10.6074 12.2041C10.6654 12.1516 10.7107 12.0867 10.7412 12.0146C10.7717 11.9425 10.7859 11.8644 10.7832 11.7861C10.7859 11.7354 10.7859 11.6845 10.7832 11.6338C10.7553 11.5116 10.7213 11.3907 10.6797 11.2725L9.07324 6.73633C9.03487 6.57566 8.93782 6.435 8.80078 6.34277C8.67137 6.26921 8.52376 6.23296 8.375 6.23828H8.07031ZM2.72168 6.34277C2.54887 6.34045 2.37923 6.39374 2.23926 6.49512C2.17597 6.54408 2.12533 6.60801 2.0918 6.68066C2.05834 6.75327 2.04306 6.83323 2.04688 6.91309C2.043 6.95567 2.043 6.99844 2.04688 7.04102C2.05964 7.10841 2.08631 7.17284 2.125 7.22949C2.1636 7.28597 2.21354 7.33375 2.27148 7.37012C2.40237 7.44793 2.55287 7.48681 2.70508 7.48242H3.93359L3.94141 11.7061C3.93347 11.7647 3.93347 11.8242 3.94141 11.8828C3.96779 12.0254 4.04488 12.1538 4.1582 12.2441C4.27733 12.3367 4.42539 12.3852 4.57617 12.3809C4.66219 12.3842 4.74809 12.3696 4.82812 12.3379C4.90831 12.3061 4.98156 12.2578 5.04199 12.1963C5.10495 12.132 5.15376 12.0549 5.18555 11.9707C5.21734 11.8864 5.23139 11.796 5.22656 11.7061V7.48242H6.41504C6.58473 7.49009 6.75222 7.43906 6.88867 7.33789C6.95193 7.28728 7.00271 7.22224 7.03613 7.14844C7.06947 7.07465 7.0848 6.99397 7.08105 6.91309C7.08497 6.87304 7.08497 6.83204 7.08105 6.79199C7.07025 6.72409 7.04462 6.65933 7.00586 6.60254C6.96699 6.54563 6.91592 6.4977 6.85645 6.46289C6.72781 6.37916 6.57624 6.33743 6.42285 6.34277H2.72168ZM19.0928 6.23828C18.997 6.23647 18.9026 6.2616 18.8203 6.31055C18.7329 6.38023 18.6495 6.45526 18.5713 6.53516L16.54 8.87988V6.74414C16.5141 6.59922 16.4371 6.46831 16.3232 6.375C16.1919 6.2793 16.0314 6.23151 15.8691 6.24023C15.7068 6.24901 15.552 6.31353 15.4316 6.42285C15.3133 6.55808 15.2501 6.73343 15.2549 6.91309L15.207 11.666C15.1991 11.7246 15.1991 11.7842 15.207 11.8428C15.2334 11.9854 15.3104 12.1137 15.4238 12.2041C15.5404 12.2954 15.685 12.3438 15.833 12.3408C15.9217 12.3445 16.0109 12.3296 16.0938 12.2979C16.1764 12.2661 16.2521 12.2181 16.3154 12.1562C16.4338 12.021 16.497 11.8457 16.4922 11.666V10.3252L17.2061 9.57812L18.6992 11.9873C18.7611 12.1002 18.8501 12.1968 18.957 12.2686C19.0556 12.3203 19.1661 12.3453 19.2773 12.3408C19.4452 12.3432 19.6092 12.2887 19.7432 12.1875C19.8144 12.1269 19.8703 12.0505 19.9053 11.9639C19.9402 11.8773 19.9536 11.7834 19.9443 11.6904V11.6504C19.9 11.5154 19.8353 11.3875 19.752 11.2725V11.1924L18.1455 8.70312L19.4785 7.24219C19.5373 7.17586 19.5883 7.10309 19.6309 7.02539C19.6727 6.95199 19.695 6.86867 19.6953 6.78418V6.67969C19.6838 6.61503 19.6598 6.55311 19.624 6.49805C19.5882 6.44289 19.5409 6.39613 19.4863 6.35938C19.3705 6.28018 19.2331 6.23751 19.0928 6.23828ZM11.6182 6.23828C11.5307 6.23423 11.4429 6.24848 11.3613 6.28027C11.2799 6.31202 11.2061 6.36084 11.1445 6.42285C11.0232 6.55635 10.9596 6.7329 10.9678 6.91309L10.9912 11.4814C10.9853 11.5695 10.9854 11.658 10.9912 11.7461C11.0158 11.9062 11.1027 12.0504 11.2324 12.1475C11.3775 12.242 11.5498 12.2875 11.7227 12.2764H14.4355C14.6084 12.2787 14.778 12.2254 14.918 12.124C14.9813 12.0751 15.0319 12.0112 15.0654 11.9385C15.0989 11.8658 15.1142 11.786 15.1104 11.7061V11.5859C15.0981 11.5185 15.0719 11.4541 15.0332 11.3975C14.9945 11.3408 14.9441 11.2929 14.8857 11.2568C14.7557 11.1762 14.6052 11.1338 14.4521 11.1357H12.2441V6.91309C12.252 6.85716 12.252 6.80006 12.2441 6.74414C12.2209 6.60008 12.1466 6.46915 12.0352 6.375C11.9149 6.28486 11.7684 6.2366 11.6182 6.23828ZM8.99316 10.1162H7.47559L8.23828 7.70801L8.99316 10.1162Z" fill="#1C170D"/>
</svg>
