<svg width="19" height="18" viewBox="0 0 19 18" fill="none" xmlns="http://www.w3.org/2000/svg">
<path fill-rule="evenodd" clip-rule="evenodd" d="M18.5 9C18.5002 13.3747 15.3546 17.116 11.0448 17.8669C6.73497 18.6178 2.50942 16.1608 1.03014 12.0437C-0.449138 7.92669 1.24636 3.34222 5.04851 1.17843C8.85067 -0.985358 13.6581 -0.101661 16.4422 3.27281C16.6245 3.47796 16.6802 3.76631 16.5874 4.02461C16.4946 4.28291 16.2682 4.46989 15.997 4.51211C15.7258 4.55433 15.4532 4.44505 15.2862 4.22719C13.0117 1.46926 9.1068 0.700036 5.95621 2.38926C2.80563 4.07849 1.28521 7.75659 2.32346 11.1774C3.36172 14.5981 6.67001 16.8106 10.228 16.4637C13.786 16.1168 16.6046 13.3069 16.9625 9.75H9.5C9.08579 9.75 8.75 9.41421 8.75 9C8.75 8.58579 9.08579 8.25 9.5 8.25H17.75C18.1642 8.25 18.5 8.58579 18.5 9V9Z" fill="#1C0D0D"/>
</svg>
